<svg id="Layer_1" enable-background="new 0 0 128 128" height="512" viewBox="0 0 128 128" width="512" xmlns="http://www.w3.org/2000/svg"><path d="m121.5 51.8c0 14.5-14.6 26.4-37 29.3-14.3 2.5-14.2 22.6-35.2 22.6-1 0-2 0-2.9-.1-19.5-1-38.8-11.9-39.8-32.1 0-.6-.1-1.2-.1-1.8 0-7.4 1.5-14.6 8.4-18.9 16.4-8.5 28.1 2.8 42.1-5.1 12.9-7.3 14.9-21.5 34.1-21.5s30.4 13.1 30.4 27.6z" fill="#9ad14b"/><path d="m109.7 53c0 12.9-12.5 18.5-32.5 21.2-12.3 2.2-13.7 27.9-30.8 29.6-19.5-1-38.8-11.9-39.8-32.1.3-5.9 1.9-11.4 7.4-14.9 14.6-7.7 28.5 6.4 41-.6 11.5-6.5 13.7-16 30.3-19.5 16.8-3.5 24.4 3.4 24.4 16.3z" fill="#e7e6e4"/></svg>