<svg width="512" height="512" viewBox="0 0 512 512" fill="none" xmlns="http://www.w3.org/2000/svg">
<path d="M486 207.2C486 265.2 427.6 312.8 338 324.4C280.8 334.4 281.2 414.8 197.2 414.8C193.2 414.8 189.2 414.8 185.6 414.4C107.6 410.4 30.4 366.8 26.4 286C26.4 283.6 26 281.2 26 278.8C26 249.2 32 220.4 59.6 203.2C125.2 169.2 172 214.4 228 182.8C279.6 153.6 287.6 96.8 364.4 96.8C441.2 96.8 486 149.2 486 207.2Z" fill="#9AD14B"/>
<path d="M438.8 212C438.8 263.6 388.8 286 308.8 296.8C259.6 305.6 254 408.4 185.6 415.2C107.6 411.2 30.4 367.6 26.4 286.8C27.6 263.2 34 241.2 56 227.2C114.4 196.4 170 252.8 220 224.8C266 198.8 274.8 160.8 341.2 146.8C408.4 132.8 438.8 160.4 438.8 212Z" fill="#EDD9AF"/>
</svg>
