<svg width="394" height="394" viewBox="0 0 394 394" fill="none" xmlns="http://www.w3.org/2000/svg">
<g clip-path="url(#clip0)">
<path d="M174.497 248.928C174.738 234.595 176.364 223.273 179.375 214.963C182.386 206.652 188.529 197.438 197.803 187.321L221.47 162.932C231.587 151.49 236.646 139.204 236.646 126.076C236.646 113.43 233.333 103.553 226.709 96.4473C220.085 89.2207 210.449 85.6074 197.803 85.6074C185.518 85.6074 175.641 88.8594 168.174 95.3633C160.706 101.867 156.973 110.599 156.973 121.56H123.55C123.791 102.048 130.716 86.3301 144.326 74.4062C158.057 62.362 175.882 56.3398 197.803 56.3398C220.566 56.3398 238.271 62.4824 250.918 74.7676C263.685 86.9323 270.068 103.674 270.068 124.992C270.068 146.07 260.312 166.846 240.801 187.321L221.108 206.833C212.316 216.589 207.92 230.62 207.92 248.928H174.497ZM173.052 306.198C173.052 300.778 174.678 296.262 177.93 292.648C181.302 288.915 186.24 287.048 192.744 287.048C199.248 287.048 204.186 288.915 207.559 292.648C210.931 296.262 212.617 300.778 212.617 306.198C212.617 311.618 210.931 316.135 207.559 319.748C204.186 323.241 199.248 324.987 192.744 324.987C186.24 324.987 181.302 323.241 177.93 319.748C174.678 316.135 173.052 311.618 173.052 306.198Z" fill="black"/>
</g>
<defs>
<clipPath id="clip0">
<rect width="394" height="394" fill="white"/>
</clipPath>
</defs>
</svg>
