<svg width="512" height="512" viewBox="0 0 512 512" fill="none" xmlns="http://www.w3.org/2000/svg">
<path d="M418.905 260.178C418.905 311.778 404.905 385.178 305.905 363.178C256.705 371.978 252.9 389.535 184.5 396.335C106.5 392.335 97 382.135 93 301.335C94.2 277.735 101.5 219.843 123.5 205.843C132 142.343 161 151.343 211 123.343C257 97.3433 285.1 149.835 351.5 135.835C418.7 121.835 418.905 208.578 418.905 260.178Z" fill="#005130"/>
<path d="M300.2 214.9C290.6 214.9 285.4 208.9 281.8 204.1C278.6 200.1 277.4 198.9 274.6 198.9C271.8 198.9 270.6 200.1 267.4 204.1C263.8 208.5 259 214.9 249 214.9C239 214.9 234.2 208.9 230.6 204.1C227.4 200.1 226.2 198.9 223.4 198.9C220.6 198.9 219.4 200.1 216.2 204.1C212.6 208.5 207.8 214.9 197.8 214.9C187.8 214.9 183 208.9 179.4 204.1C176.2 200.1 175 198.9 172.2 198.9C168.2 198.9 165 195.7 165 191.7C165 187.7 168.2 184.5 172.2 184.5C181.8 184.5 187 190.5 190.6 195.3C193.8 199.3 195 200.5 197.8 200.5C200.6 200.5 201.8 199.3 205 195.3C208.6 190.9 213.4 166 223.4 166C233.4 166 238.2 190.5 241.8 195.3C245 199.3 246.2 200.5 249 200.5C251.8 200.5 253 199.3 256.2 195.3C259.8 190.9 264.6 166 274.6 166C284.6 166 289.4 190.5 293 195.3C296.2 199.3 297.4 200.5 300.2 200.5C304.2 200.5 307.4 203.7 307.4 207.7C307.4 211.7 303.8 214.9 300.2 214.9Z" fill="#43A93B"/>
<path d="M391.2 284.9C381.6 284.9 376.4 278.9 372.8 274.1C369.6 270.1 368.4 268.9 365.6 268.9C362.8 268.9 361.6 270.1 358.4 274.1C354.8 278.5 350 284.9 340 284.9C330 284.9 325.2 278.9 321.6 274.1C318.4 270.1 317.2 268.9 314.4 268.9C311.6 268.9 310.4 270.1 307.2 274.1C303.6 278.5 298.8 284.9 288.8 284.9C278.8 284.9 274 278.9 270.4 274.1C267.2 270.1 266 268.9 263.2 268.9C259.2 268.9 256 265.7 256 261.7C256 257.7 259.2 254.5 263.2 254.5C272.8 254.5 278 260.5 281.6 265.3C284.8 269.3 286 270.5 288.8 270.5C291.6 270.5 292.8 269.3 296 265.3C299.6 260.9 304.4 236 314.4 236C324.4 236 329.2 260.5 332.8 265.3C336 269.3 337.2 270.5 340 270.5C342.8 270.5 344 269.3 347.2 265.3C350.8 260.9 355.6 236 365.6 236C375.6 236 380.4 260.5 384 265.3C387.2 269.3 388.4 270.5 391.2 270.5C395.2 270.5 398.4 273.7 398.4 277.7C398.4 281.7 394.8 284.9 391.2 284.9Z" fill="#43A93B"/>
<path d="M262.2 333.9C252.6 333.9 247.4 327.9 243.8 323.1C240.6 319.1 239.4 317.9 236.6 317.9C233.8 317.9 232.6 319.1 229.4 323.1C225.8 327.5 221 333.9 211 333.9C201 333.9 196.2 327.9 192.6 323.1C189.4 319.1 188.2 317.9 185.4 317.9C182.6 317.9 181.4 319.1 178.2 323.1C174.6 327.5 169.8 333.9 159.8 333.9C149.8 333.9 145 327.9 141.4 323.1C138.2 319.1 137 317.9 134.2 317.9C130.2 317.9 127 314.7 127 310.7C127 306.7 130.2 303.5 134.2 303.5C143.8 303.5 149 309.5 152.6 314.3C155.8 318.3 157 319.5 159.8 319.5C162.6 319.5 163.8 318.3 167 314.3C170.6 309.9 175.4 285 185.4 285C195.4 285 200.2 309.5 203.8 314.3C207 318.3 208.2 319.5 211 319.5C213.8 319.5 215 318.3 218.2 314.3C221.8 309.9 226.6 285 236.6 285C246.6 285 251.4 309.5 255 314.3C258.2 318.3 259.4 319.5 262.2 319.5C266.2 319.5 269.4 322.7 269.4 326.7C269.4 330.7 265.8 333.9 262.2 333.9Z" fill="#43A93B"/>
</svg>
