<svg id="Capa_1" enable-background="new 0 0 512 512" height="512" viewBox="0 0 512 512" width="512" xmlns="http://www.w3.org/2000/svg"><g><path d="m320.889 299.556h-129.778c-5.523 0-10-4.477-10-10v-22.794c0-5.523 4.477-10 10-10h129.778c5.523 0 10 4.477 10 10v22.794c0 5.523-4.477 10-10 10z" fill="#fbe77b"/><path d="m256 299.556h-53.492v29.656c0 2.247.893 4.402 2.482 5.991l6.508 6.508c1.117 1.117 1.899 2.523 2.259 4.061l38.118 162.956c1.02 4.362 7.23 4.362 8.25 0l38.118-162.956c.36-1.538 1.142-2.944 2.259-4.061l6.508-6.508c1.589-1.589 2.482-3.744 2.482-5.991v-29.656z" fill="#fbe77b"/><path d="m256 299.556h-53.492v21.397h53.492 53.492v-21.397z" fill="#fcdd2e"/><circle cx="256" cy="128.381" fill="#f9f5f8" r="128.381"/><g fill="#e3dfe2"><path d="m332.418 25.217c15.842 21.351 25.217 47.789 25.217 76.418 0 70.903-57.478 128.381-128.381 128.381-28.629 0-55.066-9.375-76.418-25.217 23.393 31.528 60.89 51.963 103.164 51.963 70.903 0 128.381-57.478 128.381-128.381 0-42.274-20.435-79.772-51.963-103.164z"/><g><circle cx="256" cy="136.94" r="12.838"/><circle cx="295.584" cy="136.94" r="12.838"/><circle cx="335.168" cy="136.94" r="12.838"/><circle cx="216.416" cy="136.94" r="12.838"/><circle cx="176.832" cy="136.94" r="12.838"/></g><g><circle cx="275.792" cy="174.384" r="12.838"/><circle cx="315.376" cy="174.384" r="12.838"/><circle cx="236.208" cy="174.384" r="12.838"/><circle cx="196.624" cy="174.384" r="12.838"/></g><g><circle cx="295.584" cy="211.829" r="12.838"/><circle cx="256" cy="211.829" r="12.838"/><circle cx="216.416" cy="211.829" r="12.838"/></g></g></g></svg>