<svg width="512" height="512" viewBox="0 0 512 512" fill="none" xmlns="http://www.w3.org/2000/svg">
<path d="M26 279.6C26 250 32 221.2 59.6 204C125.2 169.2 155.6 230 211.6 198.4C263.2 169.2 287.6 96.8 364.4 96.8C441.2 96.8 486 149.2 486 207.2C486 265.2 459.2 324 369.2 316.4C314 312 281.2 415.2 197.2 415.2C113.2 415.2 26 369.2 26 279.6Z" fill="#72BDF6"/>
<path d="M206.4 291.6C196.8 291.6 191.6 285.6 188 280.8C184.8 276.8 183.6 275.6 180.8 275.6C178 275.6 176.8 276.8 173.6 280.8C170 285.2 165.2 291.6 155.2 291.6C145.2 291.6 140.4 285.6 136.8 280.8C133.6 276.8 132.4 275.6 129.6 275.6C126.8 275.6 125.6 276.8 122.4 280.8C118.8 285.2 114 291.6 104 291.6C94 291.6 89.2 285.6 85.6 280.8C82.4 276.8 81.2 275.6 78.4 275.6C74.4 275.6 71.2 272.4 71.2 268.4C71.2 264.4 74.4 261.2 78.4 261.2C88 261.2 93.2 267.2 96.8 272C100 276 101.2 277.2 104 277.2C106.8 277.2 108 276 111.2 272C114.8 267.6 119.6 261.2 129.6 261.2C139.6 261.2 144.4 267.2 148 272C151.2 276 152.4 277.2 155.2 277.2C158 277.2 159.2 276 162.4 272C166 267.6 170.8 261.2 180.8 261.2C190.8 261.2 195.6 267.2 199.2 272C202.4 276 203.6 277.2 206.4 277.2C210.4 277.2 213.6 280.4 213.6 284.4C213.6 288.4 210.4 291.6 206.4 291.6Z" fill="#45AEEF"/>
<path d="M236 339.6C226.4 339.6 221.2 333.6 217.6 328.8C214.4 324.8 213.2 323.6 210.4 323.6C207.6 323.6 206.4 324.8 203.2 328.8C199.6 333.2 194.8 339.6 184.8 339.6C174.8 339.6 170 333.6 166.4 328.8C163.2 324.8 162 323.6 159.2 323.6C156.4 323.6 155.2 324.8 152 328.8C148.4 333.2 143.6 339.6 133.6 339.6C123.6 339.6 118.8 333.6 115.2 328.8C112 324.8 110.8 323.6 108 323.6C104 323.6 100.8 320.4 100.8 316.4C100.8 312.4 104 309.2 108 309.2C117.6 309.2 122.8 315.2 126.4 320C129.6 324 130.8 325.2 133.6 325.2C136.4 325.2 137.6 324 140.8 320C144.4 315.6 149.2 309.2 159.2 309.2C169.2 309.2 174 315.2 177.6 320C180.8 324 182 325.2 184.8 325.2C187.6 325.2 188.8 324 192 320C195.6 315.6 200.4 309.2 210.4 309.2C220.4 309.2 225.2 315.2 228.8 320C232 324 233.2 325.2 236 325.2C240 325.2 243.2 328.4 243.2 332.4C243.2 336.4 240 339.6 236 339.6Z" fill="#45AEEF"/>
<path d="M446 197.6C436.4 197.6 431.2 191.6 427.6 186.8C424.4 182.8 423.2 181.6 420.4 181.6C417.6 181.6 416.4 182.8 413.2 186.8C409.6 191.2 404.8 197.6 394.8 197.6C384.8 197.6 380 191.6 376.4 186.8C373.2 182.8 372 181.6 369.2 181.6C366.4 181.6 365.2 182.8 362 186.8C358.4 191.2 353.6 197.6 343.6 197.6C333.6 197.6 328.8 191.6 325.2 186.8C322 182.8 320.8 181.6 318 181.6C314 181.6 310.8 178.4 310.8 174.4C310.8 170.4 314 167.2 318 167.2C327.6 167.2 332.8 173.2 336.4 178C339.6 182 340.8 183.2 343.6 183.2C346.4 183.2 347.6 182 350.8 178C354.4 173.6 359.2 167.2 369.2 167.2C379.2 167.2 384 173.2 387.6 178C390.8 182 392 183.2 394.8 183.2C397.6 183.2 398.8 182 402 178C405.6 173.6 410.4 167.2 420.4 167.2C430.4 167.2 435.2 173.2 438.8 178C442 182 443.2 183.2 446 183.2C450 183.2 453.2 186.4 453.2 190.4C453.2 194.4 449.6 197.6 446 197.6Z" fill="#45AEEF"/>
</svg>
